<svg width="96" height="31" viewBox="0 0 96 31" fill="none" xmlns="http://www.w3.org/2000/svg">
<path d="M16.554 5.6V21H14.75L5.51 9.516V21H3.31V5.6H5.114L14.354 17.084V5.6H16.554ZM27.0595 15.676V21H24.8815V15.632L18.7655 5.6H21.1195L26.0475 13.718L30.9975 5.6H33.1755L27.0595 15.676ZM41.226 20.318C40.918 20.582 40.5366 20.7873 40.082 20.934C39.6273 21.066 39.158 21.132 38.674 21.132C37.5006 21.132 36.5913 20.8167 35.946 20.186C35.3006 19.5553 34.978 18.6533 34.978 17.48V11.078H32.998V9.34H34.978V6.788H37.09V9.34H40.434V11.078H37.09V17.392C37.09 18.0227 37.244 18.5067 37.552 18.844C37.8746 19.1813 38.3293 19.35 38.916 19.35C39.5613 19.35 40.1113 19.1667 40.566 18.8L41.226 20.318ZM45.8033 11.298C46.17 10.6233 46.7127 10.11 47.4313 9.758C48.15 9.406 49.0227 9.23 50.0493 9.23V11.276C49.932 11.2613 49.7707 11.254 49.5653 11.254C48.4213 11.254 47.5193 11.5987 46.8593 12.288C46.214 12.9627 45.8913 13.9307 45.8913 15.192V21H43.7793V9.34H45.8033V11.298ZM56.8769 9.23C58.4902 9.23 59.7222 9.626 60.5729 10.418C61.4382 11.21 61.8709 12.3907 61.8709 13.96V21H59.8689V19.46C59.5169 20.0027 59.0109 20.4207 58.3509 20.714C57.7056 20.9927 56.9356 21.132 56.0409 21.132C54.7356 21.132 53.6869 20.8167 52.8949 20.186C52.1176 19.5553 51.7289 18.7267 51.7289 17.7C51.7289 16.6733 52.1029 15.852 52.8509 15.236C53.5989 14.6053 54.7869 14.29 56.4149 14.29H59.7589V13.872C59.7589 12.9627 59.4949 12.266 58.9669 11.782C58.4389 11.298 57.6616 11.056 56.6349 11.056C55.9456 11.056 55.2709 11.1733 54.6109 11.408C53.9509 11.628 53.3936 11.9287 52.9389 12.31L52.0589 10.726C52.6602 10.242 53.3789 9.87533 54.2149 9.626C55.0509 9.362 55.9382 9.23 56.8769 9.23ZM56.3929 19.504C57.1996 19.504 57.8962 19.328 58.4829 18.976C59.0696 18.6093 59.4949 18.096 59.7589 17.436V15.808H56.5029C54.7136 15.808 53.8189 16.4093 53.8189 17.612C53.8189 18.1987 54.0462 18.6607 54.5009 18.998C54.9556 19.3353 55.5862 19.504 56.3929 19.504ZM75.8825 9.34L70.7785 21H68.6225L63.5185 9.34H65.7185L69.7225 18.69L73.8145 9.34H75.8825ZM88.0693 15.236C88.0693 15.3973 88.0546 15.61 88.0253 15.874H78.5653C78.6973 16.9007 79.1446 17.7293 79.9073 18.36C80.6846 18.976 81.6453 19.284 82.7893 19.284C84.1826 19.284 85.3046 18.8147 86.1553 17.876L87.3213 19.24C86.7933 19.856 86.1333 20.3253 85.3413 20.648C84.564 20.9707 83.6913 21.132 82.7233 21.132C81.4913 21.132 80.3986 20.8827 79.4453 20.384C78.492 19.8707 77.7513 19.1593 77.2233 18.25C76.71 17.3407 76.4533 16.314 76.4533 15.17C76.4533 14.0407 76.7026 13.0213 77.2013 12.112C77.7146 11.2027 78.4113 10.4987 79.2913 10C80.186 9.48667 81.1906 9.23 82.3053 9.23C83.42 9.23 84.41 9.48667 85.2753 10C86.1553 10.4987 86.8373 11.2027 87.3213 12.112C87.82 13.0213 88.0693 14.0627 88.0693 15.236ZM82.3053 11.012C81.2933 11.012 80.4426 11.32 79.7533 11.936C79.0786 12.552 78.6826 13.3587 78.5653 14.356H86.0453C85.928 13.3733 85.5246 12.574 84.8353 11.958C84.1606 11.3273 83.3173 11.012 82.3053 11.012ZM91.002 4.676H93.114V21H91.002V4.676Z" fill="white"/>
<path d="M1 30L30.2899 26L70.4783 30L95 26" stroke="#F0F2FF"/>
</svg>
